<svg width="100" height="100" viewBox="0 0 100 100" fill="none" xmlns="http://www.w3.org/2000/svg">
<path d="M39.667 33.3332V24.9998C39.667 22.7897 40.545 20.6701 42.1078 19.1073C43.6706 17.5445 45.7902 16.6665 48.0003 16.6665H77.167C79.3771 16.6665 81.4967 17.5445 83.0595 19.1073C84.6224 20.6701 85.5003 22.7897 85.5003 24.9998V74.9998C85.5003 77.21 84.6224 79.3296 83.0595 80.8924C81.4967 82.4552 79.3771 83.3332 77.167 83.3332H48.0003C45.7902 83.3332 43.6706 82.4552 42.1078 80.8924C40.545 79.3296 39.667 77.21 39.667 74.9998V66.6665" stroke="#1F7494" stroke-width="5" stroke-linecap="round" stroke-linejoin="round"/>
<path d="M15 49.5H65M65 49.5L52.5 37M65 49.5L52.5 62" stroke="#1F7494" stroke-width="5" stroke-linecap="round" stroke-linejoin="round"/>
</svg>
