<svg width="100" height="100" viewBox="0 0 100 100" fill="none" xmlns="http://www.w3.org/2000/svg">
<path d="M66.667 12.5V29.1667M33.3337 12.5V29.1667M16.667 45.8333H83.3337M16.667 29.1667C16.667 26.9565 17.545 24.8369 19.1078 23.2741C20.6706 21.7113 22.7902 20.8333 25.0003 20.8333H75.0003C77.2105 20.8333 79.3301 21.7113 80.8929 23.2741C82.4557 24.8369 83.3337 26.9565 83.3337 29.1667V79.1667C83.3337 81.3768 82.4557 83.4964 80.8929 85.0592C79.3301 86.622 77.2105 87.5 75.0003 87.5H25.0003C22.7902 87.5 20.6706 86.622 19.1078 85.0592C17.545 83.4964 16.667 81.3768 16.667 79.1667V29.1667ZM45.8337 66.6667C45.8337 67.7717 46.2726 68.8315 47.054 69.6129C47.8354 70.3943 48.8953 70.8333 50.0003 70.8333C51.1054 70.8333 52.1652 70.3943 52.9466 69.6129C53.728 68.8315 54.167 67.7717 54.167 66.6667C54.167 65.5616 53.728 64.5018 52.9466 63.7204C52.1652 62.939 51.1054 62.5 50.0003 62.5C48.8953 62.5 47.8354 62.939 47.054 63.7204C46.2726 64.5018 45.8337 65.5616 45.8337 66.6667Z" stroke="#1F7494" stroke-width="5" stroke-linecap="round" stroke-linejoin="round"/>
</svg>
