<svg width="100" height="100" viewBox="0 0 100 100" fill="none" xmlns="http://www.w3.org/2000/svg">
<path d="M27.0833 29.1667H72.9167M50 50C43.3696 50 37.0107 52.6339 32.3223 57.3223C27.6339 62.0107 25 68.3696 25 75V83.3333C25 84.4384 25.439 85.4982 26.2204 86.2796C27.0018 87.061 28.0616 87.5 29.1667 87.5H70.8333C71.9384 87.5 72.9982 87.061 73.7796 86.2796C74.561 85.4982 75 84.4384 75 83.3333V75C75 68.3696 72.3661 62.0107 67.6777 57.3223C62.9893 52.6339 56.6304 50 50 50ZM50 50C43.3696 50 37.0107 47.3661 32.3223 42.6777C27.6339 37.9893 25 31.6304 25 25V16.6667C25 15.5616 25.439 14.5018 26.2204 13.7204C27.0018 12.939 28.0616 12.5 29.1667 12.5H70.8333C71.9384 12.5 72.9982 12.939 73.7796 13.7204C74.561 14.5018 75 15.5616 75 16.6667V25C75 31.6304 72.3661 37.9893 67.6777 42.6777C62.9893 47.3661 56.6304 50 50 50Z" stroke="#1F7494" stroke-width="5" stroke-linecap="round" stroke-linejoin="round"/>
</svg>
