<svg width="20" height="30" viewBox="0 0 20 30" fill="none" xmlns="http://www.w3.org/2000/svg">
<path d="M1.5 27.75V24.9167C1.5 23.4138 2.09702 21.9724 3.15973 20.9097C4.22243 19.847 5.66377 19.25 7.16667 19.25H12.8333C14.3362 19.25 15.7776 19.847 16.8403 20.9097C17.903 21.9724 18.5 23.4138 18.5 24.9167V27.75M4.33333 7.91667C4.33333 9.41956 4.93036 10.8609 5.99306 11.9236C7.05577 12.9863 8.49711 13.5833 10 13.5833C11.5029 13.5833 12.9442 12.9863 14.0069 11.9236C15.0696 10.8609 15.6667 9.41956 15.6667 7.91667C15.6667 6.41377 15.0696 4.97243 14.0069 3.90973C12.9442 2.84702 11.5029 2.25 10 2.25C8.49711 2.25 7.05577 2.84702 5.99306 3.90973C4.93036 4.97243 4.33333 6.41377 4.33333 7.91667Z" stroke="#6E7282" stroke-width="2.83333" stroke-linecap="round" stroke-linejoin="round"/>
</svg>
