<svg width="100" height="100" viewBox="0 0 100 100" fill="none" xmlns="http://www.w3.org/2000/svg">
<path d="M58.3333 33.3332V24.9998C58.3333 22.7897 57.4554 20.6701 55.8926 19.1073C54.3298 17.5445 52.2101 16.6665 50 16.6665H20.8333C18.6232 16.6665 16.5036 17.5445 14.9408 19.1073C13.378 20.6701 12.5 22.7897 12.5 24.9998V74.9998C12.5 77.21 13.378 79.3296 14.9408 80.8924C16.5036 82.4552 18.6232 83.3332 20.8333 83.3332H50C52.2101 83.3332 54.3298 82.4552 55.8926 80.8924C57.4554 79.3296 58.3333 77.21 58.3333 74.9998V66.6665M37.5 49.9998H87.5M87.5 49.9998L75 37.4998M87.5 49.9998L75 62.4998" stroke="#1F7494" stroke-width="5" stroke-linecap="round" stroke-linejoin="round"/>
</svg>
