<svg width="41" height="42" viewBox="0 0 41 42" fill="none" xmlns="http://www.w3.org/2000/svg">
<path d="M39.8049 29.5648C39.4345 29.0141 38.8625 28.629 38.2106 28.4913C37.5587 28.3537 36.8785 28.4744 36.3149 28.8279L35.5607 29.1582C36.6875 26.6619 36.9483 23.8643 36.3021 21.2047C35.4876 17.9159 33.8116 14.8999 31.4444 12.4635C31.3906 12.4051 31.3259 12.3577 31.2538 12.3242C31.1816 12.2907 31.1036 12.2716 31.024 12.2681C30.9445 12.2646 30.8651 12.2766 30.7902 12.3036C30.7154 12.3306 30.6466 12.3719 30.5879 12.4253C30.5291 12.4787 30.4815 12.5431 30.4478 12.6148C30.414 12.6864 30.3949 12.764 30.3913 12.8431C30.3877 12.9221 30.3999 13.0011 30.427 13.0755C30.4542 13.1499 30.4958 13.2182 30.5495 13.2766C32.7704 15.5581 34.3487 18.3798 35.126 21.4588C35.4902 22.8985 35.5521 24.3973 35.308 25.8619C35.0639 27.3264 34.5189 28.7253 33.7071 29.9714L26.1903 33.2493V32.3345C26.0979 31.4975 25.7292 30.7144 25.1417 30.1076C24.5543 29.5008 23.7812 29.1044 22.9432 28.9803L16.2446 28.1672C13.6879 27.8115 13.0104 26.2741 9.53321 25.4102C9.30629 23.2461 9.6362 21.0602 10.492 19.0575C12.1338 15.3912 14.7173 12.2187 17.9832 9.85887C19.3255 10.8118 25.2954 10.9261 26.6377 9.7064C27.3152 10.2273 27.9161 10.7609 28.5808 11.2946C28.6898 11.3917 28.8307 11.4459 28.9771 11.447C29.0623 11.449 29.1469 11.4318 29.2244 11.3966C29.3019 11.3614 29.3703 11.3091 29.4245 11.2437C29.481 11.1893 29.5259 11.1241 29.5565 11.0521C29.5871 10.9801 29.6029 10.9027 29.6029 10.8245C29.6029 10.7463 29.5871 10.6689 29.5565 10.5969C29.5259 10.5248 29.481 10.4597 29.4245 10.4052C28.747 9.80805 28.0311 9.2236 27.2769 8.66457C27.3574 8.27999 27.3296 7.88079 27.1966 7.51091C27.0635 7.14103 26.8303 6.81481 26.5227 6.56819C28.3763 3.73491 28.9643 1.86723 28.1973 0.888925C28.032 0.673878 27.7899 0.530207 27.521 0.487639C27.2521 0.44507 26.9771 0.506862 26.7528 0.66023C26.5848 0.784986 26.3808 0.852399 26.1711 0.852399C25.9614 0.852399 25.7574 0.784986 25.5895 0.66023C25.2172 0.393522 24.77 0.25 24.3111 0.25C23.8522 0.25 23.405 0.393522 23.0327 0.66023C22.8625 0.801872 22.6475 0.879487 22.4255 0.879487C22.2035 0.879487 21.9885 0.801872 21.8183 0.66023C21.446 0.393522 20.9988 0.25 20.5399 0.25C20.081 0.25 19.6338 0.393522 19.2616 0.66023C19.0945 0.786965 18.8901 0.855615 18.6799 0.855615C18.4697 0.855615 18.2653 0.786965 18.0982 0.66023C17.8765 0.502376 17.6016 0.436634 17.3319 0.476962C17.0622 0.51729 16.8189 0.660512 16.6537 0.87622C15.9122 1.82912 16.4108 3.63327 18.1749 6.39032C18.0759 6.44097 17.9818 6.50051 17.8937 6.56819C17.451 6.09469 16.9013 5.73255 16.2901 5.51165C15.6789 5.29075 15.0236 5.2174 14.3782 5.29766C13.3217 5.42438 12.2547 5.16717 11.3741 4.57346C11.3086 4.52925 11.235 4.49828 11.1575 4.48233C11.08 4.46639 11 4.46577 10.9223 4.48052C10.8445 4.49526 10.7705 4.52509 10.7043 4.56828C10.6382 4.61148 10.5812 4.66721 10.5367 4.73228C10.4922 4.79735 10.4611 4.87049 10.445 4.94753C10.429 5.02457 10.4284 5.10399 10.4432 5.18127C10.458 5.25855 10.4881 5.33216 10.5315 5.39791C10.575 5.46366 10.631 5.52026 10.6965 5.56448C11.8236 6.31499 13.1856 6.63536 14.5316 6.46655C15.0448 6.41002 15.5639 6.4882 16.0372 6.6933C16.5105 6.8984 16.9214 7.22324 17.229 7.63544V7.72438C16.5844 7.72531 15.9417 7.79345 15.3114 7.92766C14.5119 8.03364 13.7441 8.30701 13.0588 8.72971C12.3735 9.15241 11.7862 9.71482 11.3357 10.3798C11.2801 10.5156 11.2756 10.6668 11.3231 10.8057C11.3706 10.9446 11.4668 11.0618 11.5941 11.1359C11.7215 11.2099 11.8714 11.2359 12.0165 11.2091C12.1615 11.1822 12.292 11.1043 12.384 10.9896C13.4834 9.10925 16.219 8.88056 17.2417 8.86785C13.7899 11.3425 11.0667 14.6895 9.35424 18.562C8.4743 20.6306 8.10607 22.8787 8.28041 25.1179C7.69643 25.0314 7.1067 24.9889 6.51627 24.9909V24.6224C6.51627 24.3938 6.47097 24.1675 6.38296 23.9563C6.29494 23.7451 6.16594 23.5532 6.00331 23.3916C5.84068 23.23 5.64761 23.1018 5.43513 23.0143C5.22264 22.9268 4.9949 22.8818 4.76491 22.8818H2.00365C1.76593 22.8815 1.53063 22.9293 1.3121 23.0223C1.09356 23.1152 0.89636 23.2515 0.732505 23.4226C0.56865 23.5938 0.441572 23.7964 0.359013 24.0179C0.276454 24.2395 0.240141 24.4754 0.252288 24.7114V38.6872C0.255634 39.1478 0.441226 39.5886 0.768947 39.9143C1.09667 40.24 1.54019 40.4245 2.00365 40.4278H4.77769C5.24218 40.4278 5.68765 40.2444 6.01609 39.918C6.34454 39.5916 6.52905 39.1488 6.52905 38.6872V38.5093L12.5885 40.7454C13.4052 41.053 14.2719 41.2081 15.1452 41.2028H24.0938C25.4526 41.1968 26.782 40.8092 27.9289 40.0848C39.9583 32.4616 39.2296 32.9825 39.2935 32.919C39.7689 32.508 40.0748 31.9371 40.1527 31.3158C40.2305 30.6944 40.0748 30.0663 39.7154 29.5521M25.5 9.10925C23.3458 9.66843 21.0833 9.66843 18.9292 9.10925C17.9832 8.86785 18.2516 7.19075 19.2743 7.44486C21.2028 7.94031 23.2263 7.94031 25.1548 7.44486C26.1519 7.19075 26.4332 8.86785 25.5 9.10925ZM17.5741 1.791C17.9367 2.00281 18.3537 2.10482 18.7738 2.0845C19.1939 2.06419 19.5989 1.92244 19.9391 1.67665C20.9618 1.00327 21.0768 2.08322 22.4319 2.08322C22.8923 2.09753 23.3437 1.95397 23.7103 1.67665C23.8896 1.5278 24.1158 1.44626 24.3494 1.44626C24.5831 1.44626 24.8093 1.5278 24.9886 1.67665C25.3282 1.92398 25.7334 2.06667 26.1538 2.087C26.5743 2.10733 26.9915 2.0044 27.3536 1.791C27.4814 2.23569 27.2002 3.55704 25.4105 6.21245C23.4914 6.67934 21.4874 6.67934 19.5684 6.21245C17.7787 3.53163 17.4974 2.19757 17.6252 1.74018M38.6032 31.9788L27.3536 39.0556C26.3869 39.6673 25.2653 39.9934 24.1193 39.9958H15.1708C14.4408 39.9962 13.7171 39.8627 13.0359 39.602L6.52905 37.2388V30.7718C6.52905 30.6134 6.46575 30.4615 6.35307 30.3495C6.2404 30.2376 6.08757 30.1746 5.92822 30.1746C5.76887 30.1746 5.61605 30.2376 5.50337 30.3495C5.39069 30.4615 5.32739 30.6134 5.32739 30.7718V38.6999C5.32741 38.7711 5.31311 38.8415 5.28533 38.9071C5.25756 38.9727 5.21686 39.0321 5.16564 39.0818C5.11442 39.1315 5.05371 39.1706 4.98709 39.1966C4.92047 39.2227 4.84927 39.2352 4.77769 39.2335H2.00365C1.87259 39.2179 1.75192 39.1549 1.66467 39.0564C1.57742 38.958 1.52971 38.8311 1.53065 38.6999V24.7241C1.52895 24.6529 1.54157 24.5822 1.56779 24.516C1.59401 24.4497 1.63329 24.3894 1.68332 24.3385C1.73335 24.2876 1.79311 24.2472 1.8591 24.2195C1.92509 24.1919 1.99597 24.1777 2.06756 24.1777H4.77769C4.92348 24.1777 5.0633 24.2353 5.16639 24.3378C5.26948 24.4402 5.32739 24.5792 5.32739 24.7241V27.9766C5.32739 28.135 5.39069 28.2869 5.50337 28.3989C5.61605 28.5109 5.76887 28.5738 5.92822 28.5738C6.08757 28.5738 6.2404 28.5109 6.35307 28.3989C6.46575 28.2869 6.52905 28.135 6.52905 27.9766V26.2741C11.5275 26.2741 12.6524 28.9295 16.0784 29.4123L22.7643 30.1746C23.3353 30.249 23.8644 30.5127 24.2658 30.9232C24.6672 31.3336 24.9174 31.8668 24.9758 32.4362V33.5797H18.7374C18.5915 33.6008 18.4581 33.6734 18.3617 33.7842C18.2652 33.895 18.2121 34.0366 18.2121 34.1832C18.2121 34.3297 18.2652 34.4713 18.3617 34.5821C18.4581 34.693 18.5915 34.7656 18.7374 34.7867H25.5767C25.6528 34.7997 25.7306 34.7997 25.8068 34.7867L36.8135 29.9714C37.5933 29.6283 38.322 29.5775 38.8077 30.289C38.97 30.5524 39.038 30.8626 39.0009 31.1692C38.9638 31.4759 38.8237 31.7611 38.6032 31.9788Z" fill="#1F7494"/>
<path d="M19.0442 13.8992H26.9189C26.675 14.2938 26.4104 14.6755 26.1263 15.0426H24.0298C24.3315 15.4095 24.5339 15.8468 24.6179 16.3132H26.855L26.088 17.4312H24.669C24.597 17.9331 24.4088 18.4115 24.1193 18.8288C23.7867 19.2825 23.348 19.6488 22.8409 19.8961C22.1612 20.2347 21.415 20.4212 20.6549 20.4424C20.6549 20.4424 22.2273 22.3609 25.3849 26.0327H23.2628C20.1819 22.4625 18.6479 20.6838 18.6479 20.6584V19.5403C18.9672 19.5614 19.2874 19.5614 19.6067 19.5403C21.3325 19.5403 22.4063 18.994 22.8282 17.8759C22.8898 17.7136 22.9201 17.5412 22.9176 17.3677H18.2772C18.7885 16.6181 19.057 16.2496 19.057 16.2496H22.7898C22.5073 15.7687 22.0496 15.4139 21.5114 15.2586C21.1345 15.1211 20.7368 15.0481 20.3354 15.0426H18.2644C18.763 14.293 19.0314 13.9246 19.0442 13.9246" fill="#1F7494"/>
</svg>
