<svg width="46" height="46" viewBox="0 0 46 46" fill="none" xmlns="http://www.w3.org/2000/svg">
<path d="M5.75 40.25V36.4167C5.75 34.3833 6.55774 32.4333 7.99551 30.9955C9.43329 29.5577 11.3833 28.75 13.4167 28.75H21.0833C23.1167 28.75 25.0667 29.5577 26.5045 30.9955C27.9423 32.4333 28.75 34.3833 28.75 36.4167V40.25M30.6667 5.99894C32.3158 6.42119 33.7775 7.38029 34.8213 8.72504C35.8651 10.0698 36.4317 11.7237 36.4317 13.426C36.4317 15.1284 35.8651 16.7823 34.8213 18.127C33.7775 19.4718 32.3158 20.4309 30.6667 20.8531M40.25 40.2498V36.4165C40.2403 34.7244 39.671 33.083 38.6309 31.7482C37.5909 30.4135 36.1384 29.4603 34.5 29.0373M9.58333 13.4167C9.58333 15.45 10.3911 17.4 11.8288 18.8378C13.2666 20.2756 15.2167 21.0833 17.25 21.0833C19.2833 21.0833 21.2334 20.2756 22.6712 18.8378C24.1089 17.4 24.9167 15.45 24.9167 13.4167C24.9167 11.3833 24.1089 9.43329 22.6712 7.99551C21.2334 6.55774 19.2833 5.75 17.25 5.75C15.2167 5.75 13.2666 6.55774 11.8288 7.99551C10.3911 9.43329 9.58333 11.3833 9.58333 13.4167Z" stroke="#1F7494" stroke-width="1.5" stroke-linecap="round" stroke-linejoin="round"/>
</svg>
